<svg width="16" height="16" id="arrow-icon" viewBox="0 0 16 16" fill="none" xmlns="http://www.w3.org/2000/svg">
<path d="M11.0024 4.52943L8.76544 2.2963C8.57486 2.10604 8.31867 2 8.04999 2C7.7813 2 7.52511 2.10604 7.33453 2.2963L5.09757 4.52943C4.70079 4.92554 4.70079 5.56491 5.09757 5.95789C5.2944 6.15439 5.55371 6.25419 5.81303 6.25419C6.07234 6.25419 6.33165 6.15439 6.52848 5.95789L7.05023 5.43704V13.0019C7.05023 13.554 7.497 14 8.04999 14C8.60298 14 9.04975 13.554 9.04975 13.0019V5.43704L9.5715 5.95789C9.96828 6.354 10.6087 6.354 11.0024 5.95789C11.3992 5.56179 11.3992 4.92242 11.0024 4.52943Z" fill="#6B6C7E"/>
</svg>
