<svg width="15" height="15" id="delete-icon" viewBox="0 0 15 15" fill="none" xmlns="http://www.w3.org/2000/svg">
<path fill-rule="evenodd" clip-rule="evenodd" d="M10.625 5C10.9702 5 11.25 5.27982 11.25 5.625V11.875C11.25 12.9105 10.4105 13.75 9.375 13.75H5.625C4.58947 13.75 3.75 12.9105 3.75 11.875V5.625C3.75 5.27982 4.02982 5 4.375 5H10.625ZM10 6.25H5V11.875C5 12.2202 5.27982 12.5 5.625 12.5H9.375C9.72018 12.5 10 12.2202 10 11.875V6.25ZM5.625 1.875C5.625 1.52982 5.90482 1.25 6.25 1.25H8.75C9.09518 1.25 9.375 1.52982 9.375 1.875V2.5H11.875C12.2202 2.5 12.5 2.77982 12.5 3.125C12.5 3.47018 12.2202 3.75 11.875 3.75H3.125C2.77982 3.75 2.5 3.47018 2.5 3.125C2.5 2.77982 2.77982 2.5 3.125 2.5H5.625V1.875Z" fill="black"/>
</svg>
