<svg width="36" height="36" viewBox="0 0 36 36" fill="none" xmlns="http://www.w3.org/2000/svg">
<rect x="2" y="2" width="32" height="32" rx="16" fill="#F4EBFF"/>
<g clip-path="url(#clip0_220_13424)">
<path d="M17.9999 24.6666V11.3333M14.6666 24.6666V21.3333M14.6666 14.6666V11.3333M21.3333 24.6666V21.3333M21.3333 14.6666V11.3333M11.3333 14.6666H24.6666M11.3333 21.3333H24.6666M24.6666 21.4666V14.5333C24.6666 13.4132 24.6666 12.8532 24.4486 12.4253C24.2569 12.049 23.9509 11.743 23.5746 11.5513C23.1467 11.3333 22.5867 11.3333 21.4666 11.3333L14.5333 11.3333C13.4131 11.3333 12.8531 11.3333 12.4253 11.5513C12.0489 11.743 11.743 12.049 11.5512 12.4253C11.3333 12.8532 11.3333 13.4132 11.3333 14.5333L11.3333 21.4666C11.3333 22.5868 11.3333 23.1468 11.5512 23.5746C11.743 23.951 12.0489 24.2569 12.4253 24.4487C12.8531 24.6666 13.4131 24.6666 14.5333 24.6666H21.4666C22.5867 24.6666 23.1467 24.6666 23.5746 24.4487C23.9509 24.2569 24.2569 23.951 24.4486 23.5746C24.6666 23.1468 24.6666 22.5868 24.6666 21.4666Z" stroke="#7F56D9" stroke-width="1.33333" stroke-linecap="round" stroke-linejoin="round"/>
</g>
<rect x="2" y="2" width="32" height="32" rx="16" stroke="#F9F5FF" stroke-width="4"/>
<defs>
<clipPath id="clip0_220_13424">
<rect width="16" height="16" fill="white" transform="translate(10 10)"/>
</clipPath>
</defs>
</svg>
