<svg xmlns="http://www.w3.org/2000/svg" xmlns:xlink="http://www.w3.org/1999/xlink" viewBox="0 0 100 100" width="40px" height="40px"><g id="bin"></g><g id="full_bin"></g><g id="bookmark"></g><g id="edit"></g><g id="pen"></g><g id="search"></g><g id="plus"></g><g id="multiple"></g><g id="arrow_top"></g><g id="arrow_bottom"></g><g id="minus"></g><g id="synchronize"></g><g id="refresh_1_"></g><g id="left_arrow"></g><g id="scale"></g><g id="right_arrow"></g><g id="expand"></g><g id="play"></g><g id="back"></g><g id="next"></g><g id="upload"></g><g id="download"></g><g id="shared"></g><g id="checked"></g><g id="file"><g><g><path d="M29.614,12.307h-1.268c-4.803,0-8.732,3.93-8.732,8.732v61.535c0,4.803,3.93,8.732,8.732,8.732h43.535c4.803,0,8.732-3.93,8.732-8.732v-50.02C72.74,24.68,68.241,20.182,60.367,12.307H41.614" style="fill:#FEFDEF;"/><path d="M71.882,92.307H28.347c-5.367,0-9.732-4.366-9.732-9.732V21.04c0-5.367,4.366-9.732,9.732-9.732h1.268c0.552,0,1,0.448,1,1s-0.448,1-1,1h-1.268c-4.264,0-7.732,3.469-7.732,7.732v61.535c0,4.264,3.469,7.732,7.732,7.732h43.535c4.264,0,7.732-3.469,7.732-7.732V32.969L59.953,13.307H41.614c-0.552,0-1-0.448-1-1s0.448-1,1-1h18.752c0.265,0,0.52,0.105,0.707,0.293l20.248,20.248c0.188,0.188,0.293,0.442,0.293,0.707v50.02C81.614,87.941,77.248,92.307,71.882,92.307z" style="fill:#1F212B;"/></g><g><path d="M60.114,12.807v10.986c0,4.958,4.057,9.014,9.014,9.014h11.986" style="fill:#FEF6AA;"/><path d="M81.114,33.307H69.129c-5.247,0-9.515-4.268-9.515-9.515V12.807c0-0.276,0.224-0.5,0.5-0.5s0.5,0.224,0.5,0.5v10.985c0,4.695,3.82,8.515,8.515,8.515h11.985c0.276,0,0.5,0.224,0.5,0.5S81.391,33.307,81.114,33.307z" style="fill:#1F212B;"/></g><path d="M75.114,51.307c-0.276,0-0.5-0.224-0.5-0.5v-3c0-0.276,0.224-0.5,0.5-0.5s0.5,0.224,0.5,0.5v3C75.614,51.083,75.391,51.307,75.114,51.307z" style="fill:#1F212B;"/><path d="M75.114,59.307c-0.276,0-0.5-0.224-0.5-0.5v-6c0-0.276,0.224-0.5,0.5-0.5s0.5,0.224,0.5,0.5v6C75.614,59.083,75.391,59.307,75.114,59.307z" style="fill:#1F212B;"/><path d="M67.956,86.307H32.272c-4.223,0-7.658-3.45-7.658-7.689V25.955c0-2.549,1.264-4.931,3.382-6.371c0.228-0.156,0.54-0.095,0.695,0.132c0.155,0.229,0.096,0.54-0.132,0.695c-1.844,1.254-2.944,3.326-2.944,5.544v52.663c0,3.688,2.987,6.689,6.658,6.689h35.685c3.671,0,6.658-3.001,6.658-6.689V60.807c0-0.276,0.224-0.5,0.5-0.5s0.5,0.224,0.5,0.5v17.811C75.614,82.857,72.179,86.307,67.956,86.307z" style="fill:#1F212B;"/><path d="M39.802,14.307l-0.117,11.834c0,2.21-2.085,3.666-4.036,3.666c-1.951,0-4.217-1.439-4.217-3.649l0.037-12.58c0-1.307,1.607-2.451,2.801-2.451c1.194,0,2.345,1.149,2.345,2.456l0.021,10.829c0,0-0.083,0.667-1.005,0.645c-0.507-0.012-1.145-0.356-1.016-0.906v-9.843h-0.813l-0.021,9.708c0,1.38,0.54,1.948,1.875,1.948s1.959-0.714,1.959-2.094V13.665c0-2.271-1.36-3.5-3.436-3.5s-3.564,1.261-3.564,3.532l0.032,12.11c0,3.04,2.123,4.906,4.968,4.906c2.845,0,5-1.71,5-4.75V14.307H39.802z" style="fill:#1F212B;"/><path d="M53.114,52.307h-23c-0.276,0-0.5-0.224-0.5-0.5s0.224-0.5,0.5-0.5h23c0.276,0,0.5,0.224,0.5,0.5S53.391,52.307,53.114,52.307z" style="fill:#1F212B;"/><g><path d="M44.114,59.307h-14c-0.276,0-0.5-0.224-0.5-0.5s0.224-0.5,0.5-0.5h14c0.276,0,0.5,0.224,0.5,0.5S44.391,59.307,44.114,59.307z" style="fill:#1F212B;"/><path d="M70.114,59.307h-24c-0.276,0-0.5-0.224-0.5-0.5s0.224-0.5,0.5-0.5h24c0.276,0,0.5,0.224,0.5,0.5S70.391,59.307,70.114,59.307z" style="fill:#1F212B;"/></g><g><path d="M61.114,66.307h-11c-0.276,0-0.5-0.224-0.5-0.5s0.224-0.5,0.5-0.5h11c0.276,0,0.5,0.224,0.5,0.5S61.391,66.307,61.114,66.307z" style="fill:#1F212B;"/><path d="M71.114,66.307h-8c-0.276,0-0.5-0.224-0.5-0.5s0.224-0.5,0.5-0.5h8c0.276,0,0.5,0.224,0.5,0.5S71.391,66.307,71.114,66.307z" style="fill:#1F212B;"/><path d="M48.114,66.307h-18c-0.276,0-0.5-0.224-0.5-0.5s0.224-0.5,0.5-0.5h18c0.276,0,0.5,0.224,0.5,0.5S48.391,66.307,48.114,66.307z" style="fill:#1F212B;"/></g><g><path d="M70.114,73.307h-13c-0.276,0-0.5-0.224-0.5-0.5s0.224-0.5,0.5-0.5h13c0.276,0,0.5,0.224,0.5,0.5S70.391,73.307,70.114,73.307z" style="fill:#1F212B;"/><path d="M54.114,73.307h-24c-0.276,0-0.5-0.224-0.5-0.5s0.224-0.5,0.5-0.5h24c0.276,0,0.5,0.224,0.5,0.5S54.391,73.307,54.114,73.307z" style="fill:#1F212B;"/></g></g></g><g id="zip_file"></g><g id="document_file"></g><g id="image_file"></g><g id="exel_file"></g><g id="pdf_file"></g><g id="folder"></g><g id="clipboard"></g><g id="adress"></g><g id="news"></g><g id="box"></g><g id="wooden_box"></g><g id="calendar"></g><g id="clock"></g><g id="hourglass"></g><g id="envelope"></g><g id="mail_plane"></g><g id="note"></g><g id="malbox"></g><g id="key"></g><g id="lock_close"></g><g id="lock_open"></g><g id="toolbox"></g><g id="suitcase"></g><g id="Idea"></g><g id="dashboard"></g><g id="home"></g><g id="chat"></g><g id="phone"></g><g id="iphone"></g><g id="monitor"></g><g id="laptop"></g><g id="window"></g><g id="html_window"></g><g id="router"></g><g id="safe"></g><g id="user_male"></g><g id="user_female"></g><g id="camera"></g><g id="compass"></g><g id="star"></g><g id="picture"></g><g id="preferences"></g><g id="settings"></g><g id="options"></g><g id="printer"></g><g id="save"></g><g id="help"></g><g id="marker"></g><g id="map"></g><g id="flag_1_"></g><g id="shop"></g><g id="cart"></g><g id="wallet"></g><g id="cards"></g><g id="price"></g><g id="shopping_bag"></g><g id="dollars"></g><g id="basket"></g><g id="delivery"></g><g id="bill"></g><g id="cash_machine"></g><g id="bill_machine"></g><g id="calculator"></g><g id="purse"></g><g id="geometry"></g><g id="setsquare"></g><g id="coins"></g><g id="cert"></g><g id="goal"></g><g id="lab"></g><g id="cup"></g><g id="money"></g><g id="servers"></g><g id="diamond"></g><g id="mouse"></g></svg>
