<svg width="32" height="40" id="pdf-icon" viewBox="0 0 32 40" fill="none" xmlns="http://www.w3.org/2000/svg">
<g opacity="0.3">
<path opacity="0.3" d="M22.3472 8.20799C21.4724 8.20711 20.6337 7.84475 20.0152 7.20047C19.3967 6.55618 19.0488 5.6826 19.048 4.77145V0H4.30559C3.16367 0 2.06854 0.472519 1.26108 1.31358C0.453627 2.15465 0 3.29535 0 4.4848V31.5203C0.00169574 32.7086 0.456066 33.8477 1.26334 34.6873C2.07061 35.5269 3.16478 35.9985 4.30559 35.9985H22.0032C23.144 35.9985 24.2381 35.5269 25.0454 34.6873C25.8527 33.8477 26.3071 32.7086 26.3088 31.5203V8.20799H22.3472Z" fill="#FF3E4C"/>
</g>
<path d="M26.3086 8.20799H22.347C21.4723 8.20711 20.6336 7.84475 20.0151 7.20047C19.3966 6.55618 19.0487 5.6826 19.0479 4.77145V0L26.3086 8.20799Z" fill="#FF3E4C"/>
<path d="M20.896 25.139H4.37759C4.21846 25.139 4.06584 25.0731 3.95332 24.9559C3.8408 24.8387 3.77759 24.6797 3.77759 24.514C3.77801 24.3485 3.84141 24.19 3.95389 24.0731C4.06636 23.9563 4.21873 23.8907 4.37759 23.8907H20.896C21.0547 23.8907 21.2069 23.9563 21.3191 24.0732C21.4313 24.1901 21.4944 24.3487 21.4944 24.514C21.4946 24.596 21.4792 24.6772 21.4493 24.753C21.4193 24.8289 21.3752 24.8977 21.3197 24.9558C21.2641 25.0138 21.198 25.0599 21.1253 25.0914C21.0526 25.1228 20.9747 25.139 20.896 25.139Z" fill="#FF3E4C"/>
<path d="M20.896 18.0993H4.37759C4.21873 18.0993 4.06636 18.0337 3.95389 17.9168C3.84141 17.8 3.77801 17.6415 3.77759 17.476C3.77759 17.3102 3.8408 17.1512 3.95332 17.034C4.06584 16.9168 4.21846 16.851 4.37759 16.851H20.896C20.9747 16.851 21.0526 16.8672 21.1253 16.8986C21.198 16.93 21.2641 16.9761 21.3197 17.0342C21.3752 17.0922 21.4193 17.1611 21.4493 17.2369C21.4792 17.3128 21.4946 17.394 21.4944 17.476C21.4944 17.6413 21.4313 17.7998 21.3191 17.9167C21.2069 18.0336 21.0547 18.0993 20.896 18.0993Z" fill="#FF3E4C"/>
<path d="M20.896 21.6191H4.37759C4.21846 21.6191 4.06584 21.5532 3.95332 21.436C3.8408 21.3188 3.77759 21.1599 3.77759 20.9941C3.77801 20.8287 3.84141 20.6701 3.95389 20.5533C4.06636 20.4364 4.21873 20.3708 4.37759 20.3708H20.896C21.0547 20.3708 21.2069 20.4365 21.3191 20.5534C21.4313 20.6703 21.4944 20.8288 21.4944 20.9941C21.4946 21.0761 21.4792 21.1574 21.4493 21.2332C21.4193 21.309 21.3752 21.3779 21.3197 21.436C21.2641 21.494 21.198 21.5401 21.1253 21.5715C21.0526 21.6029 20.9747 21.6191 20.896 21.6191Z" fill="#FF3E4C"/>
<path d="M14.3808 14.5794H4.37759C4.21873 14.5794 4.06636 14.5138 3.95389 14.3969C3.84141 14.2801 3.77801 14.1216 3.77759 13.9561C3.77759 13.7903 3.8408 13.6314 3.95332 13.5142C4.06584 13.397 4.21846 13.3311 4.37759 13.3311H14.3808C14.5396 13.3316 14.6918 13.3976 14.804 13.5147C14.9162 13.6319 14.9792 13.7906 14.9792 13.9561C14.9788 14.1213 14.9156 14.2795 14.8034 14.3963C14.6913 14.5131 14.5394 14.579 14.3808 14.5794Z" fill="#FF3E4C"/>
<path d="M14.3808 11.0596H4.37759C4.21873 11.0596 4.06636 10.9939 3.95389 10.8771C3.84141 10.7602 3.77801 10.6017 3.77759 10.4363C3.77759 10.2705 3.8408 10.1115 3.95332 9.9943C4.06584 9.87709 4.21846 9.81128 4.37759 9.81128H14.3808C14.5396 9.81172 14.6918 9.87775 14.804 9.99491C14.9162 10.1121 14.9792 10.2708 14.9792 10.4363C14.9788 10.6014 14.9156 10.7597 14.8034 10.8765C14.6913 10.9933 14.5394 11.0591 14.3808 11.0596Z" fill="#FF3E4C"/>
<path d="M29.4305 28.4338H9.42409C8.00494 28.4338 6.85449 29.6321 6.85449 31.1104V37.3234C6.85449 38.8017 8.00494 40 9.42409 40H29.4305C30.8496 40 32.0001 38.8017 32.0001 37.3234V31.1104C32.0001 29.6321 30.8496 28.4338 29.4305 28.4338Z" fill="#FF3E4C"/>
<path d="M13.4176 35.5618V36.7734H12.2144V35.5618H13.4176Z" fill="white"/>
<path d="M15.1871 35.0152V36.7735H14.0239V31.762H15.9087C16.4799 31.762 16.9167 31.9103 17.2159 32.2053C17.3673 32.3603 17.4855 32.5469 17.5627 32.7528C17.6399 32.9588 17.6744 33.1794 17.6639 33.4003C17.6697 33.6916 17.6007 33.9793 17.4639 34.2336C17.3242 34.4821 17.1172 34.6822 16.8687 34.8086C16.569 34.9561 16.24 35.0275 15.9087 35.0169L15.1871 35.0152ZM16.4799 33.4003C16.4799 32.9558 16.2463 32.7336 15.7791 32.7336H15.1871V34.0386H15.7791C16.2463 34.043 16.4799 33.8302 16.4799 33.4003Z" fill="white"/>
<path d="M22.2608 35.5652C22.0605 35.9441 21.7579 36.2536 21.3904 36.4552C20.977 36.6756 20.5172 36.7851 20.0528 36.7735H18.2368V31.762H20.0528C20.5175 31.7499 20.978 31.8569 21.3936 32.0737C21.7601 32.2709 22.0619 32.5772 22.2608 32.9536C22.469 33.3532 22.5738 33.8024 22.5648 34.2569C22.5735 34.713 22.4688 35.1637 22.2608 35.5652ZM21.0096 35.3135C21.1397 35.1745 21.2404 35.0087 21.3055 34.8267C21.3705 34.6448 21.3983 34.4507 21.3872 34.2569C21.3984 34.0634 21.3706 33.8695 21.3056 33.6878C21.2405 33.5061 21.1397 33.3406 21.0096 33.202C20.7186 32.936 20.3385 32.8006 19.952 32.8253H19.4V35.6885H19.952C20.3381 35.713 20.718 35.5783 21.0096 35.3135Z" fill="white"/>
<path d="M26.3615 31.762V32.727H24.3887V33.8253H25.9119V34.7469H24.3887V36.7735H23.2239V31.762H26.3615Z" fill="white"/>
<path d="M20.6032 9.81125H17.7744C17.2813 9.81125 16.8816 10.2276 16.8816 10.7412V13.6878C16.8816 14.2014 17.2813 14.6177 17.7744 14.6177H20.6032C21.0963 14.6177 21.496 14.2014 21.496 13.6878V10.7412C21.496 10.2276 21.0963 9.81125 20.6032 9.81125Z" fill="#FF3E4C"/>
</svg>
