<svg width="16" height="17" id="star-icon" viewBox="0 0 16 17" fill="none" xmlns="http://www.w3.org/2000/svg">
<path fill-rule="evenodd" clip-rule="evenodd" d="M12.7117 16.3682C12.8279 16.4372 12.9568 16.4717 13.0847 16.4717H13.0945C13.4958 16.4717 13.8191 16.1454 13.8191 15.747C13.8191 15.6247 13.7908 15.5117 13.738 15.4113L11.9089 10.2694L15.698 7.25447C15.9402 7.0631 16.031 6.73996 15.9304 6.4482C15.8298 6.15643 15.5544 5.96193 15.2468 5.96193H10.5349L8.67749 0.998779C8.57007 0.716431 8.30054 0.528198 7.99975 0.528198C7.698 0.528198 7.42847 0.716431 7.32202 0.998779L5.4646 5.96193H0.755614C0.447996 5.96193 0.175536 6.15643 0.0720199 6.4482C-0.0314957 6.73996 0.0622543 7.0631 0.300536 7.25447L4.09643 10.2725L2.35522 15.3831C2.25854 15.6717 2.34936 15.9886 2.58472 16.18C2.82007 16.3713 3.14917 16.3964 3.40991 16.2427L7.99682 13.5384L12.7117 16.3682ZM8.37378 12.0733C8.25757 12.0043 8.12866 11.9698 7.99975 11.9698C7.87182 11.9698 7.74585 12.0043 7.63257 12.0702L4.36108 13.9996L5.63745 10.2568C5.73511 9.9682 5.64038 9.64821 5.4021 9.45683L2.82983 7.41135H5.96753C6.26831 7.41135 6.53784 7.2231 6.64429 6.94075L7.99975 3.32036L9.35522 6.94075C9.45874 7.2231 9.73218 7.41135 10.033 7.41135H13.1707L10.5974 9.45683C10.3562 9.64821 10.2624 9.97447 10.366 10.2662L11.7244 14.0843L8.37378 12.0733Z" fill="#6B6C7E"/>
</svg>
